<?xml version="1.0" standalone="no"?>
<!DOCTYPE svg PUBLIC "-//W3C//DTD SVG 20010904//EN"
 "http://www.w3.org/TR/2001/REC-SVG-20010904/DTD/svg10.dtd">
<svg version="1.0" xmlns="http://www.w3.org/2000/svg"
 width="32.000000pt" height="32.000000pt" viewBox="0 0 32.000000 32.000000"
 preserveAspectRatio="xMidYMid meet">

<g transform="translate(0.000000,32.000000) scale(0.100000,-0.100000)"
fill="#000000" stroke="none">
<path d="M55 288 c-25 -67 -45 -134 -45 -148 0 -15 107 -102 143 -116 9 -3 44
16 90 50 l76 56 -28 82 c-15 45 -32 83 -38 85 -7 3 -18 -17 -25 -44 l-14 -48
-51 -3 -51 -3 -17 51 c-16 49 -31 63 -40 38z m35 -75 c0 -7 -11 -13 -24 -13
-22 0 -23 1 -12 41 l11 41 12 -28 c7 -16 12 -35 13 -41z m189 -5 c1 -5 -10 -8
-24 -8 -28 0 -30 4 -13 51 l11 33 13 -34 c7 -19 13 -38 13 -42z m-158 -88 l19
-55 -26 30 c-14 17 -34 43 -46 58 l-20 29 27 -4 c24 -3 31 -11 46 -58z m79 53
c0 -17 -34 -113 -41 -113 -3 0 -12 20 -18 44 -6 24 -13 51 -17 60 -5 13 1 16
35 16 23 0 41 -3 41 -7z m38 -39 c-40 -56 -53 -65 -44 -31 15 62 25 77 51 77
l26 0 -33 -46z m-137 -48 c8 -13 -3 -9 -35 14 -25 18 -46 35 -46 36 0 1 3 10
7 20 5 14 10 12 35 -17 16 -19 33 -43 39 -53z m199 60 c0 -7 -21 -28 -47 -46
l-48 -34 29 39 c16 22 34 46 39 52 11 15 27 8 27 -11z"/>
</g>
</svg>
